<?xml version="1.0" encoding="iso-8859-1"?>
<!-- Generator: Adobe Illustrator 22.1.0, SVG Export Plug-In . SVG Version: 6.00 Build 0)  -->
<svg version="1.1" id="Layer_1" xmlns="http://www.w3.org/2000/svg" xmlns:xlink="http://www.w3.org/1999/xlink" x="0px" y="0px"
	 viewBox="0 0 543.89 538" style="enable-background:new 0 0 543.89 538;" xml:space="preserve">
<g>
	<path style="fill:#33D7A3;" d="M391.357,2.494H152.533C71.423,2.494,5.445,68.476,5.445,149.586v238.82
		c0,81.111,65.978,147.088,147.088,147.088h238.824c81.111,0,147.088-65.994,147.088-147.088v-238.82
		C538.445,68.476,472.467,2.494,391.357,2.494L391.357,2.494z M491.155,388.406c0,55.034-44.764,99.798-99.798,99.798H152.533
		c-55.034,0-99.798-44.764-99.798-99.798v-238.82c0-55.034,44.764-99.802,99.798-99.802h238.824
		c55.034,0,99.798,44.768,99.798,99.802V388.406z M491.155,388.406"/>
	<path style="fill:#33D7A3;" d="M271.945,131.667c-75.739,0-137.346,61.607-137.346,137.327
		c0,75.739,61.607,137.346,137.346,137.346c75.723,0,137.347-61.607,137.347-137.346
		C409.292,193.275,347.668,131.667,271.945,131.667L271.945,131.667z M271.945,359.035c-49.647,0-90.056-40.378-90.056-90.041
		c0-49.643,40.394-90.052,90.056-90.052s90.056,40.409,90.056,90.052C362.001,318.657,321.592,359.035,271.945,359.035
		L271.945,359.035z M271.945,359.035"/>
	<path style="fill:#33D7A3;" d="M415.049,91.565c-9.115,0-18.061,3.681-24.492,10.144c-6.483,6.435-10.191,15.393-10.191,24.54
		c0,9.111,3.724,18.057,10.191,24.52c6.42,6.435,15.377,10.148,24.492,10.148c9.143,0,18.057-3.712,24.52-10.148
		c6.467-6.463,10.16-15.424,10.16-24.52c0-9.147-3.693-18.104-10.16-24.54C433.134,95.246,424.192,91.565,415.049,91.565
		L415.049,91.565z M415.049,91.565"/>
</g>
</svg>
