<?xml version="1.0" encoding="iso-8859-1"?>
<!-- Generator: Adobe Illustrator 22.1.0, SVG Export Plug-In . SVG Version: 6.00 Build 0)  -->
<svg version="1.1" id="Layer_1" xmlns="http://www.w3.org/2000/svg" xmlns:xlink="http://www.w3.org/1999/xlink" x="0px" y="0px"
	 viewBox="-114 206 382 382" style="enable-background:new -114 206 382 382;" xml:space="preserve">
<path style="fill:#33D7A3;" d="M233.445,206h-312.89C-98.529,206-114,221.471-114,240.555v312.889
	C-114,572.529-98.529,588-79.445,588h312.889C252.529,588,268,572.529,268,553.444V240.555C268,221.471,252.529,206,233.445,206z
	 M4.207,535.844c0,5.554-4.502,10.056-10.056,10.056h-42.806c-5.554,0-10.056-4.502-10.056-10.056V356.403
	c0-5.554,4.502-10.056,10.056-10.056h42.806c5.554,0,10.056,4.502,10.056,10.056V535.844z M-27.252,329.432
	c-22.459,0-40.666-18.207-40.666-40.666c0-22.459,18.207-40.666,40.666-40.666s40.666,18.207,40.666,40.666
	C13.414,311.225-4.792,329.432-27.252,329.432z M227.91,536.654c0,5.106-4.14,9.246-9.246,9.246H172.73
	c-5.106,0-9.246-4.14-9.246-9.246v-84.168c0-12.556,3.683-55.021-32.813-55.021c-28.309,0-34.051,29.066-35.204,42.11v97.079
	c0,5.106-4.139,9.246-9.246,9.246H41.795c-5.106,0-9.246-4.14-9.246-9.246V355.593c0-5.106,4.14-9.246,9.246-9.246h44.426
	c5.106,0,9.246,4.14,9.246,9.246v15.655c10.497-15.753,26.097-27.912,59.312-27.912c73.552,0,73.131,68.716,73.131,106.472
	L227.91,536.654L227.91,536.654z"/>
</svg>
