<svg id="Layer_1" data-name="Layer 1" xmlns="http://www.w3.org/2000/svg" viewBox="0 0 118 67.42"><defs><style>.cls-1{fill:#64696d;}.cls-2{fill:none;stroke:#00e41b;stroke-miterlimit:10;stroke-width:2.15px;}.cls-3{fill:#00e41b;}</style></defs><title>Logoheader</title><path class="cls-1" d="M43,33V52.59H39.58V33Z"/><path class="cls-1" d="M49.68,34.9a2,2,0,0,1-4,0A2,2,0,0,1,49.68,34.9ZM46,38.74V52.59h3.41V38.74Z"/><path class="cls-1" d="M62.61,52.59V45.37c0-2.1-1.15-3.7-3.33-3.7a3.64,3.64,0,0,0-3.53,3.87v7.05H52.37V38.76h3.05l.22,1.88a6.23,6.23,0,0,1,4.53-2.07C63.42,38.57,66,41,66,45.34v7.25Z"/><path class="cls-1" d="M83.29,33V52.59H80.1l-.23-1.91a5,5,0,0,1-4.45,2.22c-4.06,0-7.11-2.69-7.11-7.22,0-4.76,3-7.22,7-7.22,1.45,0,3.72.78,4.53,2.21V33ZM71.73,45.68a4,4,0,1,0,7.92,0,3.94,3.94,0,0,0-4-4A3.8,3.8,0,0,0,71.73,45.68Z"/><path class="cls-1" d="M89.41,38.79l.25,1.6a4.07,4.07,0,0,1,3.89-2,5.28,5.28,0,0,1,3.56,1.31l-1.54,3a3.42,3.42,0,0,0-2.47-.9,3.19,3.19,0,0,0-3.44,3.5v7.28H86.25V38.79Z"/><path class="cls-1" d="M107.4,42.46A4.62,4.62,0,0,0,104,41.23c-1.63,0-2.52.5-2.52,1.37s.81,1.4,2.57,1.51c2.61.17,5.91.75,5.91,4.42,0,2.44-2,4.53-5.93,4.53a8.05,8.05,0,0,1-6.38-2.46l1.67-2.43a7.59,7.59,0,0,0,4.76,1.93c1.29,0,2.49-.65,2.49-1.65s-.78-1.35-2.74-1.46c-2.6-.19-5.71-1.15-5.71-4.28s3.3-4.31,5.82-4.31a7.38,7.38,0,0,1,5.37,1.82Z"/><path class="cls-2" d="M24.86,27.38a9.59,9.59,0,0,0,1.31-5.3,9.82,9.82,0,0,0-9.89-9.26H2V27.33H23.76C24.13,27.33,24.5,27.35,24.86,27.38Z"/><path class="cls-2" d="M24.86,27.38a9.68,9.68,0,0,1-8.35,4.79H2V51.51H23.47a12.27,12.27,0,0,0,12.38-11.9A12.09,12.09,0,0,0,24.86,27.38Z"/><circle class="cls-3" cx="114.53" cy="45.92" r="2.47" transform="translate(1.07 94.44) rotate(-45)"/></svg>