<svg id="Capa_1" data-name="Capa 1" xmlns="http://www.w3.org/2000/svg" viewBox="0 0 480 480"><defs><style>.cls-1{fill:#00e41b;}</style></defs><title>money</title><path class="cls-1" d="M256,232v16a72.07,72.07,0,0,0,72-72H312A56.07,56.07,0,0,1,256,232Z" transform="translate(-16 -16)"/><path class="cls-1" d="M256,104a72.07,72.07,0,0,0-72,72h16a56.07,56.07,0,0,1,56-56Z" transform="translate(-16 -16)"/><path class="cls-1" d="M264,216h3a21,21,0,0,0,3.45-41.7l-26.28-4.38A5,5,0,0,1,245,160h22a5,5,0,0,1,5,5v3h16v-3a21,21,0,0,0-21-21h-3v-8H248v8h-3a21,21,0,0,0-3.45,41.7l26.28,4.38A5,5,0,0,1,267,200H245a5,5,0,0,1-5-5v-3H224v3a21,21,0,0,0,21,21h3v8h16Z" transform="translate(-16 -16)"/><path class="cls-1" d="M304,83.83A103.31,103.31,0,0,0,256,72c-2.7,0-5.35.2-8,.41V16H232V74.9A104.46,104.46,0,0,0,216,80V64H200V88h.8A105,105,0,0,0,176,109.64V48H160v88h0a104,104,0,1,0,192,0h0V72H336v37.64a104.86,104.86,0,0,0-16-15.45V48H304Zm16,32a87.75,87.75,0,1,1-16-13.45V144h16Z" transform="translate(-16 -16)"/><rect class="cls-1" x="288" width="16" height="16"/><rect class="cls-1" x="184" y="16" width="16" height="16"/><path class="cls-1" d="M400.11,105.31a8,8,0,0,0,15.78,0,30.94,30.94,0,0,1,25.43-25.42,8,8,0,0,0,0-15.78,30.94,30.94,0,0,1-25.43-25.42,8,8,0,0,0-15.78,0,30.94,30.94,0,0,1-25.43,25.42,8,8,0,0,0,0,15.78A30.94,30.94,0,0,1,400.11,105.31ZM408,60.58A46.92,46.92,0,0,0,419.42,72,46.92,46.92,0,0,0,408,83.42,46.92,46.92,0,0,0,396.58,72,46.92,46.92,0,0,0,408,60.58Z" transform="translate(-16 -16)"/><path class="cls-1" d="M462.44,344a33.67,33.67,0,0,0-15.9,4L355.8,396.86A36,36,0,0,0,324,344H234.89a93.47,93.47,0,0,0-117.6,0H16v16h96V480H16v16H334.31a39.84,39.84,0,0,0,22.19-6.72l124.56-83A34.06,34.06,0,0,0,462.44,344Zm9.74,48.93L347.62,476a23.86,23.86,0,0,1-13.31,4H128V355.79a77.6,77.6,0,0,1,98.79,2.29A8,8,0,0,0,232,360h92a20,20,0,0,1,0,40H240a8,8,0,0,0,0,16H352a8.07,8.07,0,0,0,3.79-.95l98.34-52.95a17.9,17.9,0,0,1,18.05,30.83Z" transform="translate(-16 -16)"/><path class="cls-1" d="M96,440a24,24,0,1,0-24,24,24,24,0,0,0,24-24Zm-32,0a8,8,0,1,1,8,8A8,8,0,0,1,64,440Z" transform="translate(-16 -16)"/></svg>