<svg id="Capa_1" data-name="Capa 1" xmlns="http://www.w3.org/2000/svg" viewBox="0 0 480 480.01"><defs><style>.cls-1{fill:#00e41b;}</style></defs><title>planning</title><path class="cls-1" d="M24,496H424a8,8,0,0,0,8-8V24a8,8,0,0,0-8-8H24a8,8,0,0,0-8,8V488A8,8,0,0,0,24,496ZM32,32H416V480H32Z" transform="translate(-16 -15.99)"/><path class="cls-1" d="M479.43,21a8,8,0,0,0-14.86,0l-16,40a8,8,0,0,0-.57,3V472a24,24,0,0,0,48,0V64a8,8,0,0,0-.57-3ZM464,96h16V440H464Zm0-30.46,8-20,8,20V80H464ZM480,472a8,8,0,0,1-16,0V456h16Z" transform="translate(-16 -15.99)"/><path class="cls-1" d="M136,272a87.45,87.45,0,1,0-1.11,0Zm56.26-43.06L147.31,184l44.95-44.94a72,72,0,0,1,0,89.88ZM144,164.69V112.44a71.26,71.26,0,0,1,36.94,15.3Zm-16-52.24V184a8.17,8.17,0,0,0,.53,2.72c0,.1,0,.22.08.32a2.93,2.93,0,0,1,.29.45,7.83,7.83,0,0,0,1.16,1.75c.12.13.16.3.28.42l50.6,50.6A72,72,0,1,1,128,112.45Z" transform="translate(-16 -15.99)"/><rect class="cls-1" x="352" y="128.01" width="32" height="16"/><rect class="cls-1" x="256" y="128.01" width="80" height="16"/><rect class="cls-1" x="336" y="192.01" width="48" height="16"/><rect class="cls-1" x="256" y="192.01" width="64" height="16"/><rect class="cls-1" x="304" y="160.01" width="80" height="16"/><rect class="cls-1" x="256" y="160.01" width="32" height="16"/><path class="cls-1" d="M245,159.44a8.11,8.11,0,0,0,3,.56,7.93,7.93,0,0,0,8-7.84V152a8.4,8.4,0,0,0-2.32-5.68,8.27,8.27,0,0,0-11.36,0A8.4,8.4,0,0,0,240,152a7.89,7.89,0,0,0,2.32,5.68A11.69,11.69,0,0,0,245,159.44Z" transform="translate(-16 -15.99)"/><path class="cls-1" d="M242.32,189.68A8,8,0,0,0,256,184a6.65,6.65,0,0,0-.64-3,9.26,9.26,0,0,0-1.68-2.64,7.89,7.89,0,0,0-13,2.64,7.91,7.91,0,0,0,1.68,8.72Z" transform="translate(-16 -15.99)"/><path class="cls-1" d="M242.32,221.68A8,8,0,1,0,240,216,7.89,7.89,0,0,0,242.32,221.68Z" transform="translate(-16 -15.99)"/><rect class="cls-1" x="256" y="40.01" width="32" height="16"/><rect class="cls-1" x="128" y="40.01" width="112" height="16"/><path class="cls-1" d="M336,448H64V296a8,8,0,0,0-16,0V456a8,8,0,0,0,8,8H336a8,8,0,0,0,0-16Z" transform="translate(-16 -15.99)"/><path class="cls-1" d="M80.84,395.58a8,8,0,0,0,10.73,3.58h0l24-12L154.72,422a8,8,0,0,0,7.85,1.6l45.65-15.2,53.6,15.32A8.45,8.45,0,0,0,264,424a8,8,0,0,0,6.66-3.56L292.8,387.2l14.28,11.1a8,8,0,0,0,10.1-12.4l-.28-.22-15.2-11.82,17-25.43a8,8,0,0,0-13.32-8.88L289,364l-44.13-34.33a8,8,0,0,0-9.6-.19l-52.08,37.19-27.69-13.85a8,8,0,0,0-7.16,0L118,368,93.24,346A8,8,0,1,0,82.6,358h0l20,17.75-18.23,9.11A8,8,0,0,0,80.84,395.58ZM152,368.94l28.42,14.26a8,8,0,0,0,8.23-.66L239.8,346l40.34,31.38-19.56,29.34-50.4-14.4a7.92,7.92,0,0,0-4.72.12L161.84,407l-30.9-27.47Z" transform="translate(-16 -15.99)"/><path class="cls-1" d="M392,336H360a8,8,0,0,0,0,16h32a8,8,0,0,0,0-16Z" transform="translate(-16 -15.99)"/><path class="cls-1" d="M392,384H360a8,8,0,0,0,0,16h32a8,8,0,0,0,0-16Z" transform="translate(-16 -15.99)"/></svg>