<svg id="Capa_1" data-name="Capa 1" xmlns="http://www.w3.org/2000/svg" viewBox="0 0 424 512"><defs><style>.cls-1{fill:#00e41b;}</style></defs><title>start</title><path class="cls-1" d="M179.76,305.63a92.63,92.63,0,1,0-.94-1.49A9.79,9.79,0,0,0,179.76,305.63ZM256,327a70.86,70.86,0,0,1-55.18-26.4l30.25-30.26,21,21a10,10,0,0,0,14.15,0L323.49,234A71,71,0,0,1,256,327Zm0-142a70.93,70.93,0,0,1,58,30.17L259.1,270.09l-21-21a10,10,0,0,0-14.14,0l-33.71,33.71A71,71,0,0,1,256,185Z" transform="translate(-44 0)"/><path class="cls-1" d="M409.85,249.1A296.56,296.56,0,0,0,261,1.33a10,10,0,0,0-10,0A296.58,296.58,0,0,0,102.15,249.1,96.09,96.09,0,0,0,44,337.35V408a10,10,0,0,0,10,10H200.94a125.66,125.66,0,0,0,36.88,80.13l11.16,11a10,10,0,0,0,14,0l11.16-11A125.71,125.71,0,0,0,311.06,418H342v51.61a10,10,0,0,0,20,0V418h96a10,10,0,0,0,10-10V337.35A96.09,96.09,0,0,0,409.85,249.1ZM256,21.6A276,276,0,0,1,335.57,94H176.43A276,276,0,0,1,256,21.6Zm-134,237A275.77,275.77,0,0,1,142.43,154.5h45.28a10,10,0,1,0,0-20h-36.2Q156.79,124,162.93,114H349.07A276.54,276.54,0,0,1,390,258.59V388a10,10,0,0,1-10,10H132a10,10,0,0,1-10-10ZM64,337.35a76.09,76.09,0,0,1,38-65.84V388a29.84,29.84,0,0,0,1.72,10H64ZM260.14,483.88,256,488l-4.14-4.08A105.47,105.47,0,0,1,221,418h70A105.47,105.47,0,0,1,260.14,483.88ZM448,398H408.28A29.84,29.84,0,0,0,410,388V271.51a76.09,76.09,0,0,1,38,65.84Z" transform="translate(-44 0)"/><path class="cls-1" d="M224,154.5a10,10,0,1,0-7.07-2.93A10.08,10.08,0,0,0,224,154.5Z" transform="translate(-44 0)"/><path class="cls-1" d="M160,444.75a10,10,0,0,0-10,10v30.81a10,10,0,0,0,20,0V454.75A10,10,0,0,0,160,444.75Z" transform="translate(-44 0)"/><path class="cls-1" d="M352,492a10,10,0,1,0,7.07,2.93A10.08,10.08,0,0,0,352,492Z" transform="translate(-44 0)"/></svg>